<?xml version="1.0" encoding="UTF-8"?><svg id="Calque_1" xmlns="http://www.w3.org/2000/svg" width="69.78mm" height="20.43mm" viewBox="0 0 197.79 57.91"><defs><style>.cls-1{fill:#6ce200;}</style></defs><g><path d="M82.37,16.62h9.07v12.46c-1.2,.42-2.45,.75-3.74,.99-1.29,.25-2.76,.37-4.4,.37-2.27,0-4.2-.47-5.79-1.41s-2.79-2.33-3.61-4.17c-.82-1.84-1.24-4.1-1.24-6.79,0-2.52,.46-4.7,1.38-6.54,.92-1.84,2.27-3.27,4.05-4.27,1.78-1.01,3.95-1.51,6.52-1.51,1.21,0,2.4,.14,3.58,.41,1.18,.27,2.25,.63,3.21,1.07l-1.61,4.08c-.7-.37-1.5-.68-2.39-.94-.9-.25-1.84-.38-2.82-.38-1.41,0-2.63,.34-3.67,1.02s-1.84,1.63-2.41,2.85c-.57,1.22-.85,2.66-.85,4.31,0,1.57,.2,2.96,.61,4.17,.41,1.21,1.05,2.16,1.92,2.84s2.02,1.03,3.43,1.03c.69,0,1.27-.04,1.74-.11s.92-.15,1.34-.22v-5.01h-4.33v-4.24Z"/><path d="M106.27,11.39c.24,0,.52,.01,.84,.04,.32,.03,.58,.06,.77,.11l-.36,4.7c-.16-.05-.38-.1-.67-.12-.29-.03-.53-.04-.74-.04-.62,0-1.21,.08-1.79,.25-.58,.16-1.1,.43-1.56,.8-.46,.37-.82,.85-1.09,1.45-.27,.6-.4,1.33-.4,2.19v9.35h-4.77V11.74h3.61l.7,3.09h.23c.34-.62,.77-1.2,1.29-1.72s1.11-.94,1.77-1.25c.66-.31,1.38-.47,2.15-.47Z"/><path d="M126.95,20.89c0,1.53-.2,2.89-.59,4.08s-.96,2.18-1.71,3c-.75,.82-1.64,1.43-2.69,1.85-1.05,.42-2.23,.62-3.54,.62-1.23,0-2.36-.21-3.39-.62-1.03-.42-1.92-1.03-2.67-1.85-.76-.82-1.34-1.82-1.75-3-.41-1.18-.62-2.54-.62-4.08,0-2.04,.34-3.76,1.03-5.18,.69-1.41,1.67-2.49,2.94-3.22s2.79-1.1,4.55-1.1c1.64,0,3.09,.37,4.36,1.1s2.26,1.81,2.99,3.22c.73,1.41,1.09,3.14,1.09,5.18Zm-12.09,0c0,1.21,.13,2.22,.38,3.04,.25,.82,.64,1.44,1.17,1.86s1.23,.62,2.08,.62,1.53-.21,2.06-.62c.53-.42,.91-1.04,1.16-1.86s.37-1.84,.37-3.04-.12-2.23-.37-3.03-.63-1.41-1.17-1.82c-.53-.41-1.23-.61-2.08-.61-1.26,0-2.18,.46-2.75,1.36-.57,.91-.85,2.27-.85,4.09Z"/><path d="M140.95,30.11l-5.51-18.85h-.14c.02,.45,.05,1.13,.1,2.03s.09,1.87,.13,2.88,.06,1.94,.06,2.76v11.18h-4.33V6.09h6.6l5.41,18.37h.09l5.74-18.37h6.6V30.11h-4.52v-11.37c0-.76,.01-1.63,.04-2.61,.03-.99,.06-1.93,.1-2.82s.07-1.56,.09-2.01h-.14l-5.9,18.82h-4.44Z"/><path d="M168.31,11.39c1.62,0,3.01,.33,4.18,.98,1.17,.65,2.07,1.6,2.71,2.83,.64,1.24,.95,2.75,.95,4.54v2.43h-11.28c.05,1.41,.46,2.52,1.21,3.33,.76,.81,1.81,1.21,3.15,1.21,1.12,0,2.14-.12,3.07-.36,.93-.24,1.88-.6,2.86-1.08v3.88c-.87,.45-1.77,.78-2.71,.99-.94,.21-2.09,.31-3.43,.31-1.75,0-3.3-.34-4.65-1.02-1.35-.68-2.41-1.71-3.18-3.11-.77-1.39-1.15-3.14-1.15-5.26s.35-3.94,1.04-5.37c.69-1.43,1.66-2.5,2.9-3.22,1.24-.72,2.69-1.08,4.33-1.08Zm.03,3.57c-.93,0-1.7,.31-2.31,.94s-.96,1.6-1.06,2.94h6.69c-.01-.75-.14-1.41-.38-1.99-.25-.58-.61-1.04-1.1-1.38-.48-.34-1.1-.51-1.85-.51Z"/><path d="M185.56,30.44c-1.95,0-3.54-.8-4.76-2.41-1.23-1.6-1.84-3.96-1.84-7.07s.62-5.52,1.86-7.14c1.24-1.62,2.86-2.42,4.86-2.42,.83,0,1.57,.12,2.21,.36,.64,.24,1.19,.56,1.65,.97s.86,.86,1.18,1.36h.16c-.06-.35-.14-.87-.23-1.55-.09-.68-.13-1.39-.13-2.11V4.54h4.79V30.11h-3.66l-.92-2.38h-.2c-.3,.5-.68,.96-1.13,1.37s-.99,.74-1.62,.98c-.63,.24-1.36,.36-2.21,.36Zm1.67-3.99c1.3,0,2.22-.41,2.76-1.22s.82-2.05,.85-3.69v-.54c0-1.79-.26-3.15-.78-4.1-.52-.95-1.49-1.42-2.91-1.42-1.05,0-1.88,.48-2.47,1.43-.59,.95-.89,2.33-.89,4.12s.3,3.15,.9,4.06c.6,.91,1.45,1.36,2.54,1.36Z"/></g><g><path class="cls-1" d="M75.84,43.39l-2.03-5.88h-.04c0,.13,.02,.31,.03,.54,.01,.23,.02,.47,.03,.73,0,.26,.01,.51,.01,.74v3.86h-1.05v-7.04h1.62l1.95,5.62h.03l2.01-5.62h1.62v7.04h-1.1v-3.92c0-.22,0-.45,0-.7,0-.25,.02-.49,.03-.71,.01-.22,.02-.4,.03-.54h-.04l-2.1,5.87h-1.02Z"/><path class="cls-1" d="M85.88,43.39h-3.99v-7.04h3.99v.97h-2.83v1.91h2.65v.97h-2.65v2.21h2.83v.98Zm-.28-9.27v.1c-.08,.09-.18,.2-.31,.33-.13,.13-.27,.27-.43,.41-.15,.14-.31,.28-.46,.41s-.29,.24-.41,.33h-.76v-.12c.11-.12,.22-.27,.35-.44,.13-.17,.26-.34,.39-.52,.13-.18,.23-.34,.32-.49h1.31Z"/><path class="cls-1" d="M93.11,39.8c0,.79-.15,1.46-.44,1.99s-.72,.93-1.29,1.2c-.56,.27-1.24,.4-2.03,.4h-1.96v-7.04h2.17c.73,0,1.36,.13,1.89,.39s.94,.65,1.23,1.16c.29,.51,.43,1.15,.43,1.9Zm-1.21,.03c0-.57-.09-1.05-.27-1.42-.18-.37-.45-.65-.8-.83s-.78-.27-1.29-.27h-.99v5.11h.82c.85,0,1.48-.22,1.9-.65,.42-.43,.63-1.08,.63-1.94Z"/><path class="cls-1" d="M94.62,43.39v-7.04h1.16v7.04h-1.16Z"/><path class="cls-1" d="M100.63,37.23c-.34,0-.64,.06-.9,.18-.27,.12-.49,.3-.67,.53-.18,.23-.32,.51-.42,.84-.1,.33-.14,.69-.14,1.1,0,.54,.08,1.01,.23,1.4,.15,.39,.39,.7,.7,.91,.31,.21,.71,.32,1.19,.32,.3,0,.59-.03,.88-.09,.28-.06,.57-.14,.88-.24v.98c-.29,.11-.57,.19-.87,.25-.29,.05-.63,.08-1.01,.08-.72,0-1.32-.15-1.79-.45-.47-.3-.83-.72-1.06-1.26-.23-.54-.35-1.18-.35-1.91,0-.53,.07-1.02,.22-1.46s.36-.82,.65-1.15c.28-.32,.63-.57,1.05-.75,.41-.18,.89-.26,1.43-.26,.35,0,.7,.04,1.04,.12,.34,.08,.66,.19,.95,.33l-.4,.95c-.24-.11-.5-.21-.77-.3s-.54-.13-.83-.13Z"/><path class="cls-1" d="M108.24,43.39l-.69-1.96h-2.69l-.69,1.96h-1.22l2.62-7.07h1.28l2.61,7.07h-1.23Zm-.99-2.94l-.67-1.93c-.03-.08-.06-.2-.11-.35-.05-.15-.1-.31-.14-.47-.05-.16-.09-.29-.12-.4-.03,.13-.07,.28-.12,.44-.05,.16-.09,.31-.13,.46-.04,.14-.08,.25-.1,.33l-.67,1.93h2.07Z"/><path class="cls-1" d="M113.44,43.39l-2.03-5.88h-.04c0,.13,.02,.31,.03,.54,.01,.23,.02,.47,.03,.73,0,.26,.01,.51,.01,.74v3.86h-1.05v-7.04h1.62l1.95,5.62h.03l2.01-5.62h1.62v7.04h-1.1v-3.92c0-.22,0-.45,0-.7,0-.25,.02-.49,.03-.71,.01-.22,.02-.4,.03-.54h-.04l-2.1,5.87h-1.02Z"/><path class="cls-1" d="M123.48,43.39h-3.99v-7.04h3.99v.97h-2.83v1.91h2.65v.97h-2.65v2.21h2.83v.98Z"/><path class="cls-1" d="M130.87,43.39h-1.42l-3.45-5.62h-.04c.01,.19,.02,.39,.04,.6s.02,.43,.03,.66c0,.23,.02,.45,.02,.68v3.68h-1.05v-7.04h1.41l3.44,5.58h.03c0-.16-.01-.35-.02-.56s-.02-.43-.03-.66c0-.23-.01-.45-.02-.66v-3.7h1.05v7.04Z"/><path class="cls-1" d="M135.16,43.39h-1.16v-6.06h-2.06v-.98h5.28v.98h-2.06v6.06Z"/><path class="cls-1" d="M142.35,41.47c0,.42-.1,.78-.31,1.08-.2,.3-.5,.53-.88,.69-.38,.16-.83,.24-1.36,.24-.26,0-.5-.01-.74-.04-.23-.03-.46-.07-.66-.13s-.4-.12-.57-.2v-1.09c.29,.12,.61,.24,.96,.34s.71,.15,1.08,.15c.3,0,.55-.04,.74-.12,.2-.08,.34-.19,.44-.34,.1-.15,.15-.32,.15-.51,0-.21-.06-.38-.17-.53-.11-.14-.28-.28-.51-.4-.23-.12-.51-.25-.85-.39-.23-.09-.45-.19-.66-.31-.21-.12-.4-.26-.56-.42-.16-.16-.29-.35-.39-.57-.1-.22-.14-.48-.14-.78,0-.4,.1-.74,.29-1.02,.19-.28,.46-.5,.81-.65,.35-.15,.75-.23,1.22-.23,.37,0,.72,.04,1.04,.12,.33,.08,.65,.19,.96,.33l-.37,.93c-.29-.12-.57-.21-.84-.29s-.55-.11-.83-.11c-.24,0-.45,.04-.62,.11-.17,.07-.3,.18-.39,.31-.09,.13-.13,.29-.13,.47,0,.21,.05,.38,.15,.52,.1,.14,.26,.27,.47,.38,.21,.12,.49,.24,.83,.39,.39,.16,.72,.33,.99,.51,.27,.18,.48,.39,.62,.63s.22,.55,.22,.92Z"/><path class="cls-1" d="M148.32,36.35c.91,0,1.57,.19,1.99,.56,.42,.37,.63,.9,.63,1.57,0,.3-.05,.59-.14,.86-.09,.27-.25,.52-.46,.73-.22,.21-.5,.38-.85,.5-.35,.12-.78,.18-1.3,.18h-.75v2.63h-1.16v-7.04h2.05Zm-.08,.96h-.81v2.48h.63c.36,0,.67-.04,.92-.13,.25-.08,.44-.22,.58-.41,.13-.19,.2-.43,.2-.73,0-.41-.12-.71-.37-.91s-.63-.3-1.14-.3Z"/><path class="cls-1" d="M158.59,39.86c0,.54-.07,1.04-.2,1.48-.14,.44-.34,.83-.61,1.15-.27,.32-.62,.57-1.03,.74-.41,.17-.89,.26-1.44,.26s-1.05-.09-1.46-.26c-.41-.17-.76-.42-1.03-.74-.27-.32-.47-.7-.61-1.15-.13-.45-.2-.94-.2-1.49,0-.73,.12-1.36,.36-1.9s.6-.96,1.09-1.26,1.11-.45,1.86-.45,1.34,.15,1.83,.45c.48,.3,.85,.72,1.09,1.26,.24,.54,.36,1.18,.36,1.91Zm-5.37,0c0,.54,.07,1.01,.22,1.41,.15,.4,.38,.7,.68,.91,.31,.21,.7,.32,1.18,.32s.88-.11,1.18-.32c.31-.21,.53-.52,.67-.91,.14-.4,.21-.87,.21-1.41,0-.82-.16-1.47-.49-1.94s-.85-.7-1.57-.7c-.48,0-.88,.11-1.19,.32-.31,.21-.54,.52-.69,.91-.15,.39-.22,.86-.22,1.41Z"/><path class="cls-1" d="M165.63,36.35v4.56c0,.49-.1,.93-.31,1.32-.21,.39-.52,.7-.94,.92-.42,.23-.94,.34-1.57,.34-.9,0-1.59-.24-2.06-.71-.47-.47-.71-1.1-.71-1.89v-4.54h1.16v4.44c0,.59,.14,1.02,.41,1.3,.28,.28,.69,.42,1.24,.42,.38,0,.68-.07,.92-.2s.42-.33,.53-.59c.12-.26,.17-.57,.17-.94v-4.43h1.15Z"/><path class="cls-1" d="M169.4,36.35c.61,0,1.11,.07,1.5,.22,.4,.15,.69,.38,.89,.68s.29,.68,.29,1.15c0,.35-.06,.64-.19,.89s-.3,.45-.51,.61c-.21,.16-.43,.29-.67,.38l2,3.12h-1.31l-1.7-2.82h-1.13v2.82h-1.16v-7.04h1.98Zm-.08,.97h-.75v2.3h.8c.53,0,.92-.1,1.16-.3,.24-.2,.36-.49,.36-.88s-.13-.69-.39-.86c-.26-.17-.66-.26-1.19-.26Z"/><path class="cls-1" d="M76.79,55.23h-3.99v-7.04h3.99v.97h-2.83v1.91h2.65v.97h-2.65v2.21h2.83v.98Zm-.28-9.27v.1c-.08,.09-.18,.2-.31,.33-.13,.13-.27,.27-.43,.41-.15,.14-.31,.28-.46,.41s-.29,.24-.41,.33h-.76v-.12c.11-.12,.22-.27,.35-.44,.13-.17,.26-.34,.39-.52,.13-.18,.23-.34,.32-.49h1.31Z"/><path class="cls-1" d="M80.75,55.23h-1.16v-6.06h-2.06v-.98h5.28v.98h-2.06v6.06Z"/><path class="cls-1" d="M88.24,55.23l-.69-1.96h-2.69l-.69,1.96h-1.22l2.62-7.07h1.28l2.61,7.07h-1.23Zm-.99-2.94l-.67-1.93c-.03-.08-.06-.2-.11-.35-.05-.15-.1-.31-.14-.47-.05-.16-.09-.29-.12-.4-.03,.13-.07,.28-.12,.44-.05,.16-.09,.31-.13,.46-.04,.14-.08,.25-.1,.33l-.67,1.93h2.07Z"/><path class="cls-1" d="M90.4,48.18h2.09c.91,0,1.59,.13,2.06,.4s.69,.72,.69,1.37c0,.27-.05,.51-.14,.73-.09,.21-.23,.39-.41,.53s-.4,.23-.66,.28v.05c.27,.05,.52,.13,.73,.26,.21,.12,.38,.3,.51,.52s.19,.52,.19,.89c0,.43-.1,.8-.31,1.1-.2,.3-.49,.53-.87,.69-.38,.16-.82,.24-1.34,.24h-2.53v-7.04Zm1.16,2.9h1.11c.52,0,.89-.08,1.09-.26,.2-.17,.3-.42,.3-.74s-.12-.58-.36-.72c-.24-.15-.62-.22-1.13-.22h-1v1.94Zm0,.94v2.23h1.22c.54,0,.91-.1,1.13-.31,.22-.21,.33-.49,.33-.85,0-.22-.05-.41-.14-.57-.1-.16-.25-.28-.48-.37-.22-.09-.52-.13-.9-.13h-1.16Z"/><path class="cls-1" d="M96.9,55.23v-7.04h1.16v6.06h2.99v.98h-4.15Z"/><path class="cls-1" d="M102.26,55.23v-7.04h1.16v7.04h-1.16Z"/><path class="cls-1" d="M109.33,53.31c0,.42-.1,.78-.31,1.08-.2,.3-.5,.53-.88,.69-.38,.16-.83,.24-1.36,.24-.26,0-.5-.01-.74-.04-.23-.03-.46-.07-.66-.13s-.4-.12-.57-.2v-1.09c.29,.12,.61,.24,.96,.34s.71,.15,1.08,.15c.3,0,.55-.04,.74-.12,.2-.08,.34-.19,.44-.34,.1-.15,.15-.32,.15-.51,0-.21-.06-.38-.17-.53-.11-.14-.28-.28-.51-.4-.23-.12-.51-.25-.85-.39-.23-.09-.45-.19-.66-.31-.21-.12-.4-.26-.56-.42-.16-.16-.29-.35-.39-.57-.1-.22-.14-.48-.14-.78,0-.4,.1-.74,.29-1.02,.19-.28,.46-.5,.81-.65,.35-.15,.75-.23,1.22-.23,.37,0,.72,.04,1.04,.12,.33,.08,.65,.19,.96,.33l-.37,.93c-.29-.12-.57-.21-.84-.29s-.55-.11-.83-.11c-.24,0-.45,.04-.62,.11-.17,.07-.3,.18-.39,.31-.09,.13-.13,.29-.13,.47,0,.21,.05,.38,.15,.52,.1,.14,.26,.27,.47,.38,.21,.12,.49,.24,.83,.39,.39,.16,.72,.33,.99,.51,.27,.18,.48,.39,.62,.63s.22,.55,.22,.92Z"/><path class="cls-1" d="M114.76,53.31c0,.42-.1,.78-.31,1.08-.2,.3-.5,.53-.88,.69-.38,.16-.83,.24-1.36,.24-.26,0-.5-.01-.74-.04-.23-.03-.46-.07-.66-.13s-.4-.12-.57-.2v-1.09c.29,.12,.61,.24,.96,.34s.71,.15,1.08,.15c.3,0,.55-.04,.74-.12,.2-.08,.34-.19,.44-.34,.1-.15,.15-.32,.15-.51,0-.21-.06-.38-.17-.53-.11-.14-.28-.28-.51-.4-.23-.12-.51-.25-.85-.39-.23-.09-.45-.19-.66-.31-.21-.12-.4-.26-.56-.42-.16-.16-.29-.35-.39-.57-.1-.22-.14-.48-.14-.78,0-.4,.1-.74,.29-1.02,.19-.28,.46-.5,.81-.65,.35-.15,.75-.23,1.22-.23,.37,0,.72,.04,1.04,.12,.33,.08,.65,.19,.96,.33l-.37,.93c-.29-.12-.57-.21-.84-.29s-.55-.11-.83-.11c-.24,0-.45,.04-.62,.11-.17,.07-.3,.18-.39,.31-.09,.13-.13,.29-.13,.47,0,.21,.05,.38,.15,.52,.1,.14,.26,.27,.47,.38,.21,.12,.49,.24,.83,.39,.39,.16,.72,.33,.99,.51,.27,.18,.48,.39,.62,.63s.22,.55,.22,.92Z"/><path class="cls-1" d="M120.1,55.23h-3.99v-7.04h3.99v.97h-2.83v1.91h2.65v.97h-2.65v2.21h2.83v.98Z"/><path class="cls-1" d="M124.66,55.23l-2.03-5.88h-.04c0,.13,.02,.31,.03,.54,.01,.23,.02,.47,.03,.73,0,.26,.01,.51,.01,.74v3.86h-1.05v-7.04h1.62l1.95,5.62h.03l2.01-5.62h1.62v7.04h-1.1v-3.92c0-.22,0-.45,0-.7,0-.25,.02-.49,.03-.71,.01-.22,.02-.4,.03-.54h-.04l-2.1,5.87h-1.02Z"/><path class="cls-1" d="M134.69,55.23h-3.99v-7.04h3.99v.97h-2.83v1.91h2.65v.97h-2.65v2.21h2.83v.98Z"/><path class="cls-1" d="M142.08,55.23h-1.42l-3.45-5.62h-.04c.01,.19,.02,.39,.04,.6s.02,.43,.03,.66c0,.23,.02,.45,.02,.68v3.68h-1.05v-7.04h1.41l3.44,5.58h.03c0-.16-.01-.35-.02-.56s-.02-.43-.03-.66c0-.23-.01-.45-.02-.66v-3.7h1.05v7.04Z"/><path class="cls-1" d="M146.38,55.23h-1.16v-6.06h-2.06v-.98h5.28v.98h-2.06v6.06Z"/><path class="cls-1" d="M157.78,51.64c0,.79-.15,1.46-.44,1.99s-.72,.93-1.29,1.2c-.56,.27-1.24,.4-2.03,.4h-1.96v-7.04h2.17c.73,0,1.36,.13,1.89,.39s.94,.65,1.23,1.16c.29,.51,.43,1.15,.43,1.9Zm-1.21,.03c0-.57-.09-1.05-.27-1.42-.18-.37-.45-.65-.8-.83s-.78-.27-1.29-.27h-.99v5.11h.82c.85,0,1.48-.22,1.9-.65,.42-.43,.63-1.08,.63-1.94Z"/><path class="cls-1" d="M163.28,55.23h-3.99v-7.04h3.99v.97h-2.83v1.91h2.65v.97h-2.65v2.21h2.83v.98Z"/><path class="cls-1" d="M171.43,53.31c0,.42-.1,.78-.31,1.08-.2,.3-.5,.53-.88,.69-.38,.16-.83,.24-1.36,.24-.26,0-.5-.01-.74-.04-.23-.03-.46-.07-.66-.13s-.4-.12-.57-.2v-1.09c.29,.12,.61,.24,.96,.34s.71,.15,1.08,.15c.3,0,.55-.04,.74-.12,.2-.08,.34-.19,.44-.34,.1-.15,.15-.32,.15-.51,0-.21-.06-.38-.17-.53-.11-.14-.28-.28-.51-.4-.23-.12-.51-.25-.85-.39-.23-.09-.45-.19-.66-.31-.21-.12-.4-.26-.56-.42-.16-.16-.29-.35-.39-.57-.1-.22-.14-.48-.14-.78,0-.4,.1-.74,.29-1.02,.19-.28,.46-.5,.81-.65,.35-.15,.75-.23,1.22-.23,.37,0,.72,.04,1.04,.12,.33,.08,.65,.19,.96,.33l-.37,.93c-.29-.12-.57-.21-.84-.29s-.55-.11-.83-.11c-.24,0-.45,.04-.62,.11-.17,.07-.3,.18-.39,.31-.09,.13-.13,.29-.13,.47,0,.21,.05,.38,.15,.52,.1,.14,.26,.27,.47,.38,.21,.12,.49,.24,.83,.39,.39,.16,.72,.33,.99,.51,.27,.18,.48,.39,.62,.63s.22,.55,.22,.92Z"/><path class="cls-1" d="M177.15,55.23l-.69-1.96h-2.69l-.69,1.96h-1.22l2.62-7.07h1.28l2.61,7.07h-1.23Zm-.99-2.94l-.67-1.93c-.03-.08-.06-.2-.11-.35-.05-.15-.1-.31-.14-.47-.05-.16-.09-.29-.12-.4-.03,.13-.07,.28-.12,.44-.05,.16-.09,.31-.13,.46-.04,.14-.08,.25-.1,.33l-.67,1.93h2.07Z"/><path class="cls-1" d="M185.18,55.23h-1.42l-3.45-5.62h-.04c.01,.19,.02,.39,.04,.6s.02,.43,.03,.66c0,.23,.02,.45,.02,.68v3.68h-1.05v-7.04h1.41l3.44,5.58h.03c0-.16-.01-.35-.02-.56s-.02-.43-.03-.66c0-.23-.01-.45-.02-.66v-3.7h1.05v7.04Z"/><path class="cls-1" d="M189.47,55.23h-1.16v-6.06h-2.06v-.98h5.28v.98h-2.06v6.06Z"/><path class="cls-1" d="M196.59,55.23h-3.99v-7.04h3.99v.97h-2.83v1.91h2.65v.97h-2.65v2.21h2.83v.98Zm-.28-9.27v.1c-.08,.09-.18,.2-.31,.33-.13,.13-.27,.27-.43,.41-.15,.14-.31,.28-.46,.41s-.29,.24-.41,.33h-.76v-.12c.11-.12,.22-.27,.35-.44,.13-.17,.26-.34,.39-.52,.13-.18,.23-.34,.32-.49h1.31Z"/></g><circle class="cls-1" cx="13.51" cy="43.39" r="13.51"/><circle class="cls-1" cx="43.01" cy="41.17" r="10.09"/><circle class="cls-1" cx="16.94" cy="10.09" r="10.09"/><path class="cls-1" d="M25.54,40.84s1.69,1.02,3.87,1.06,4.55-.85,4.55-.85v4.41s-1.4-.93-3.61-.9-3.76,1.37-3.76,1.37l-1.05-5.09Z"/><path class="cls-1" d="M17.67,19.91c-1.44,.58-1.68,3-1.86,4.79s-.89,5.12,.5,5.8-5.95-.28-5.13-.42,2.26-3.06,2.48-4.75,.74-4.96-.61-5.74"/></svg>